<svg xmlns="http://www.w3.org/2000/svg" width="144.214" height="49.516" viewBox="0 0 144.214 49.516">
  <path id="Path_3" data-name="Path 3" d="M185.737,62.943c-4.221,0-10.647,1.715-14.958,10.7-1.514,3.158-3.236,6.59-4.854,9.939L157.4,65.21A3.515,3.515,0,0,0,156.05,63.7c-.906-.569-8.717-3.437-17.064.652a24.557,24.557,0,0,0-7.316,5.548V65.9a3.534,3.534,0,0,0-2.894-3.407,3.754,3.754,0,0,0-4.145,1.942c-2.418,4.933-10.591,19.033-19.285,22.528a17.956,17.956,0,0,1-9.336,1.5c6.445-4.339,10.152-9.558,11.823-14.075,1.69-4.577.372-8.652-3.53-10.906-4.179-2.413-9.8-1.5-14.669,2.392-5.5,4.392-10.291,13.508-6.421,21.365.079.16.162.261.3.5-5.52,1.447-13.393,1.156-19.417-11.255a20.559,20.559,0,0,0,5.679-2.175A26.3,26.3,0,0,0,78,66.25l-6.264-4.064a17.173,17.173,0,0,1-5.779,6.052c-2.173,1.29-7.385,2.311-10.24.853-.046-.046.049-23.057.049-23.057H48.382V68.007c-1.276.171-2.348,1.935-2.348,3.548a4.91,4.91,0,0,0,2.348,4.262V94.955h7.381l-.03-17.461h.374c.012,0,2.628,4.623,4.318,7.08,3.342,4.868,8.254,9.5,14.65,10.552a23.161,23.161,0,0,0,13.751-1.849A15.67,15.67,0,0,0,91,94.317c3.44,1.343,9.225,2.263,17.235-.955,6.41-2.582,11.981-8.724,16.044-14.234v15.9h7.381v-6.32c0-3.832.483-13.543,10.517-17.907a16.977,16.977,0,0,1,9.276-1.052l10.76,23.277a4.17,4.17,0,0,0,3.823,2.517,3.709,3.709,0,0,0,3.407-2.517c.319-.693,5.159-10.915,8.389-17,3.077-5.8,7.214-6.126,8.486-6.1h3.93V62.943ZM89.846,84.081c-2.938-4.854,1.489-10.418,4.893-13.136a8.355,8.355,0,0,1,4.759-2.08,2.543,2.543,0,0,1,1.283.305c.488.282,1.156.668.414,2.677C99.843,75.51,95.648,80.9,89.846,84.081Z" transform="translate(-46.033 -46.034)" fill="#7215c9"></path>
</svg>