<?xml version="1.0" standalone="no"?>
<!DOCTYPE svg PUBLIC "-//W3C//DTD SVG 20010904//EN"
 "http://www.w3.org/TR/2001/REC-SVG-20010904/DTD/svg10.dtd">
<svg version="1.0" xmlns="http://www.w3.org/2000/svg"
 width="122.000000pt" height="122.000000pt" viewBox="0 0 122.000000 122.000000"
 preserveAspectRatio="xMidYMid meet">

<g transform="translate(0.000000,122.000000) scale(0.100000,-0.100000)"
fill="#000000" stroke="none">
<path d="M535 1194 c-125 -20 -233 -74 -331 -166 -196 -187 -237 -476 -101
-718 17 -30 61 -85 98 -121 181 -180 456 -220 683 -101 132 69 228 181 284
330 36 94 38 263 4 369 -40 128 -136 250 -259 327 -92 57 -274 96 -378 80z
m-62 -393 c4 0 7 -36 8 -78 l0 -78 36 78 c34 74 37 77 69 77 l34 0 -42 -85
-42 -84 21 -58 c11 -32 30 -82 42 -110 l21 -53 -33 0 c-31 0 -33 3 -61 75 -16
41 -32 72 -37 69 -5 -3 -9 -36 -9 -75 l0 -69 -35 0 -35 0 0 193 c0 107 2 196
5 199 5 4 29 4 58 -1z m345 -23 c3 -28 2 -28 -52 -28 l-56 0 0 -54 0 -55 43
-3 c37 -3 42 -6 42 -28 0 -22 -5 -25 -42 -28 l-43 -3 0 -54 0 -54 53 -3 c48
-3 52 -5 55 -30 l3 -28 -85 0 -86 0 0 200 0 201 83 -3 c81 -3 82 -3 85 -30z
m72 22 c8 -5 25 -44 36 -87 23 -84 24 -84 52 22 13 49 24 71 37 73 37 8 37
-14 1 -137 -26 -88 -36 -139 -36 -191 l0 -70 -35 0 -35 0 0 74 c0 55 -9 102
-35 189 -19 63 -35 120 -35 126 0 13 30 14 50 1z m-720 -125 c0 -8 -7 -15 -15
-15 -11 0 -15 -18 -17 -82 -2 -54 -7 -83 -15 -86 -10 -3 -13 18 -13 82 0 79
-2 86 -20 86 -20 0 -26 11 -13 23 3 4 26 7 50 7 32 0 43 -4 43 -15z m42 -27
c4 -57 26 -62 30 -6 2 30 7 43 18 43 12 0 16 -18 18 -92 3 -88 2 -93 -18 -93
-17 0 -20 6 -20 40 0 29 -4 40 -15 40 -11 0 -15 -11 -15 -40 0 -29 -4 -40 -15
-40 -12 0 -15 17 -15 95 0 76 3 95 14 95 10 0 16 -13 18 -42z m168 27 c0 -9
-9 -15 -25 -15 -20 0 -25 -5 -25 -25 0 -18 5 -25 20 -25 11 0 20 -7 20 -15 0
-8 -9 -15 -20 -15 -16 0 -20 -7 -20 -30 0 -25 4 -30 25 -30 14 0 25 -4 25 -10
0 -5 -18 -10 -40 -10 l-40 0 0 95 0 95 40 0 c29 0 40 -4 40 -15z"/>
</g>
</svg>
